# xmcd
#
# Track frame offsets: 
#        150
#        17980
#        37177
#        57927
#        82475
#        111525
#        138036
#        165368
#        183351
#
# Disc length: 2818 seconds
#
# Revision: 0
# Processed by: cddbd v1.5.2PL0 Copyright (c) Steve Scherf et al.
# Submitted via: ExactAudioCopyFreeDBPlugin 1.0
#
DISCID=7c0b0009
DTITLE=Scott Barkan - Flightless Bird
DYEAR=2013
DGENRE=Folk
TTITLE0=Flightless Bird
TTITLE1=Bad Dreams
TTITLE2=Break it to Me Hard
TTITLE3=Leaving Here
TTITLE4=Crank Radio
TTITLE5=Gone Away
TTITLE6=They're Playing Our Song
TTITLE7=Wishing Well
TTITLE8=Last First Love
EXTD=
EXTT0=
EXTT1=
EXTT2=
EXTT3=
EXTT4=
EXTT5=
EXTT6=
EXTT7=
EXTT8=
PLAYORDER=
